<svg id="svg" version="1.1" xmlns="http://www.w3.org/2000/svg" xmlns:xlink="http://www.w3.org/1999/xlink" width="400" height="242.44856999498245" viewBox="0, 0, 400,242.44856999498245"><g id="svgg"><path id="path0" d="M369.932 3.190 C 368.234 11.076,364.437 22.305,359.375 34.412 C 358.547 36.394,357.898 38.045,357.933 38.080 C 357.969 38.116,358.801 38.233,359.782 38.340 C 364.441 38.847,368.833 40.409,372.550 42.881 C 373.665 43.622,373.985 43.754,374.125 43.531 C 376.058 40.449,381.153 24.539,382.430 17.598 C 383.124 13.827,383.211 14.202,381.084 11.802 C 380.063 10.650,377.342 7.568,375.037 4.954 C 372.733 2.340,370.786 0.201,370.711 0.201 C 370.637 0.201,370.286 1.546,369.932 3.190 M268.941 15.447 C 230.482 21.904,179.519 39.527,146.613 57.749 C 143.430 59.511,142.972 59.779,139.241 62.056 C 137.225 63.287,135.078 64.596,134.471 64.965 C 129.337 68.088,119.392 75.324,114.039 79.829 L 111.357 82.087 116.461 82.087 C 119.268 82.087,122.234 82.143,123.051 82.212 L 124.536 82.337 127.346 80.168 C 135.166 74.133,143.743 68.159,151.075 63.642 C 152.043 63.046,153.377 62.225,154.039 61.817 C 155.821 60.719,161.560 57.416,163.974 56.098 C 165.133 55.465,166.172 54.876,166.282 54.789 C 167.348 53.949,184.337 45.632,191.069 42.656 C 196.952 40.055,197.708 39.735,203.412 37.435 C 208.602 35.342,211.336 34.294,218.866 31.507 C 231.928 26.673,252.327 20.509,270.095 16.028 C 272.331 15.464,274.160 14.924,274.160 14.827 C 274.160 14.580,273.985 14.600,268.941 15.447 M339.008 78.629 C 333.280 90.022,325.541 102.476,317.028 113.999 C 316.274 115.019,312.431 119.989,309.584 123.624 C 307.579 126.183,302.067 132.637,300.238 134.565 C 299.293 135.562,297.944 137.010,297.240 137.782 C 290.859 144.793,278.859 156.322,270.045 163.911 C 266.558 166.914,257.602 174.253,256.199 175.258 C 256.087 175.338,255.454 175.841,254.792 176.377 C 249.073 180.997,233.353 192.266,229.352 194.615 C 224.513 197.455,222.183 198.783,218.784 200.638 C 216.842 201.698,214.847 202.790,214.350 203.065 C 192.988 214.885,161.949 227.711,141.395 233.213 C 117.762 239.538,100.173 240.952,82.734 237.929 C 64.409 234.752,50.341 223.446,46.866 209.103 C 43.309 194.420,46.194 181.665,57.770 160.900 C 59.112 158.492,60.211 156.483,60.211 156.435 C 60.211 156.387,58.367 156.347,56.114 156.347 L 52.017 156.347 50.617 158.705 C 37.316 181.114,36.750 205.024,49.144 220.973 C 50.729 223.012,53.417 226.048,54.383 226.891 C 54.765 227.224,55.234 227.649,55.425 227.836 C 55.615 228.022,56.443 228.708,57.263 229.360 C 84.919 251.338,138.062 245.726,207.125 213.535 C 217.195 208.841,229.841 202.138,240.542 195.821 C 248.223 191.287,254.040 187.491,261.491 182.150 C 264.734 179.825,267.579 177.790,267.813 177.628 C 268.047 177.467,269.323 176.519,270.647 175.522 C 271.972 174.526,273.146 173.643,273.256 173.561 C 273.632 173.280,276.661 170.888,278.673 169.285 C 282.305 166.390,289.261 160.363,292.323 157.458 C 293.979 155.887,296.237 153.801,297.341 152.822 C 301.728 148.929,306.450 144.239,314.306 135.971 C 316.170 134.010,319.034 130.802,320.622 128.899 C 321.174 128.237,322.765 126.398,324.157 124.811 C 328.570 119.784,333.417 113.760,337.176 108.634 C 338.290 107.114,339.768 105.103,340.460 104.165 C 344.788 98.296,350.843 88.889,353.807 83.430 C 354.587 81.994,354.589 81.887,353.846 81.887 C 350.788 81.887,344.904 79.845,341.345 77.550 L 339.990 76.676 339.008 78.629 M103.813 96.479 C 103.380 96.562,103.362 96.649,103.362 98.627 L 103.362 100.689 104.315 99.812 C 104.839 99.330,105.827 98.464,106.509 97.887 C 108.301 96.372,108.291 96.332,106.115 96.365 C 105.098 96.380,104.062 96.431,103.813 96.479 M74.109 119.709 C 72.095 122.177,70.447 124.295,70.447 124.416 C 70.447 124.568,71.598 124.636,74.160 124.636 L 77.873 124.636 77.873 119.920 C 77.873 117.326,77.850 115.208,77.822 115.213 C 77.795 115.219,76.124 117.242,74.109 119.709 " stroke="none" fill="#bcbcc3" fill-rule="evenodd"></path><path id="path1" d="M353.136 38.258 C 333.065 41.328,324.405 60.798,337.176 74.140 C 345.877 83.231,362.363 84.712,372.655 77.328 C 391.392 63.885,381.304 38.775,356.949 38.236 C 355.183 38.197,353.467 38.207,353.136 38.258 " stroke="none" fill="#f3a125" fill-rule="evenodd"></path><path id="path2" d="M90.718 82.088 C 84.080 82.996,80.099 86.000,78.347 91.420 L 77.828 93.026 77.900 108.881 L 77.973 124.737 77.371 124.807 C 77.040 124.846,75.324 124.814,73.557 124.738 L 70.346 124.598 70.400 115.385 L 70.454 106.172 57.485 106.172 L 44.516 106.172 44.664 120.301 L 44.812 134.430 44.373 135.337 C 42.330 139.557,30.884 140.379,27.938 136.518 C 27.292 135.670,27.130 133.748,27.109 126.643 C 27.101 124.049,27.035 118.337,26.962 113.949 L 26.829 105.971 13.414 105.971 L 0.000 105.971 0.021 111.942 C 0.113 138.503,0.273 141.215,1.964 144.945 C 8.185 158.665,28.638 163.005,43.051 153.665 L 44.456 152.754 44.513 154.682 L 44.571 156.611 48.327 156.480 C 50.392 156.407,56.212 156.348,61.260 156.348 L 70.437 156.347 70.343 152.584 C 70.292 150.514,70.205 146.676,70.151 144.054 L 70.053 139.288 73.963 139.288 L 77.873 139.288 77.873 160.261 L 77.873 181.234 91.331 181.234 L 104.790 181.234 104.677 169.945 C 104.615 163.736,104.514 154.287,104.453 148.948 L 104.341 139.240 114.759 139.319 L 125.176 139.398 125.307 133.874 C 125.379 130.835,125.438 127.469,125.439 126.392 L 125.439 124.436 114.601 124.436 L 103.763 124.436 103.753 122.980 C 103.702 115.939,103.350 98.405,103.242 97.491 L 103.105 96.337 107.679 96.337 L 112.253 96.337 112.109 101.656 L 111.966 106.974 124.749 106.974 L 137.532 106.974 137.382 131.661 L 137.232 156.347 151.948 156.347 C 160.041 156.347,166.578 156.272,166.473 156.180 C 166.368 156.088,164.972 155.488,163.372 154.847 C 154.112 151.140,150.296 147.712,149.602 142.475 L 149.472 141.495 163.346 141.495 L 177.220 141.495 177.220 142.211 C 177.220 143.574,178.214 144.769,179.721 145.218 C 180.575 145.472,181.770 145.498,187.413 145.382 L 194.094 145.244 194.718 144.534 C 196.244 142.796,196.535 140.440,195.366 139.284 C 194.078 138.011,183.799 136.431,167.285 134.968 C 153.614 133.757,151.021 131.811,150.664 122.496 L 150.487 117.847 151.220 116.452 C 153.723 111.688,157.995 109.001,163.632 108.643 C 165.221 108.542,165.578 108.463,165.489 108.232 C 165.428 108.074,165.379 107.534,165.379 107.031 L 165.379 106.117 151.852 106.211 L 138.325 106.304 138.207 105.586 C 138.141 105.190,138.087 101.887,138.085 98.244 L 138.083 91.621 137.474 90.333 C 135.822 86.840,132.995 84.528,128.415 82.921 L 126.675 82.310 113.964 82.204 C 106.974 82.146,99.177 82.056,96.638 82.004 C 94.099 81.952,91.435 81.990,90.718 82.088 M202.910 106.127 C 202.910 106.214,203.836 106.583,204.967 106.949 C 215.415 110.324,219.568 113.794,219.568 119.147 L 219.568 121.224 206.824 121.224 C 194.821 121.224,194.079 121.204,194.077 120.873 C 194.070 119.516,191.977 117.468,189.718 116.610 C 188.436 116.123,177.932 115.786,176.478 116.186 C 173.808 116.919,173.191 120.363,175.344 122.516 C 177.775 124.947,177.662 124.929,194.481 125.551 C 208.488 126.068,209.003 126.116,212.243 127.177 C 219.023 129.399,223.382 134.167,223.382 139.363 C 223.382 147.327,216.995 153.144,205.268 155.860 C 202.593 156.479,203.350 156.622,208.562 156.480 C 211.230 156.407,223.400 156.341,235.607 156.334 C 247.871 156.326,257.623 156.244,257.401 156.151 C 257.180 156.057,255.800 155.699,254.335 155.354 C 242.961 152.679,236.208 147.719,233.594 140.121 C 232.734 137.621,232.640 136.362,232.798 129.410 L 232.947 122.845 233.687 121.347 C 236.336 115.987,242.403 111.470,252.584 107.277 C 254.129 106.640,255.432 106.086,255.478 106.045 C 255.523 106.004,243.715 105.971,229.236 105.971 C 214.757 105.971,202.910 106.041,202.910 106.127 M286.203 107.075 L 286.204 108.078 288.152 108.641 C 295.972 110.899,301.922 114.757,305.402 119.824 C 306.075 120.803,308.078 124.704,308.078 125.034 C 308.078 125.171,303.773 125.235,295.083 125.229 L 282.087 125.220 281.385 124.205 C 278.801 120.475,272.563 117.907,267.998 118.694 C 252.547 121.361,251.912 139.711,267.127 143.892 C 272.813 145.454,280.941 141.429,283.006 136.028 L 283.446 134.876 287.282 134.973 C 289.393 135.026,293.032 135.115,295.370 135.170 L 299.622 135.271 300.187 134.597 C 300.498 134.227,301.704 132.851,302.867 131.538 C 307.202 126.645,309.190 124.136,318.181 112.212 C 320.462 109.187,322.328 106.646,322.328 106.564 C 322.328 106.298,315.690 106.160,300.803 106.115 L 286.202 106.071 286.203 107.075 M336.262 109.902 C 332.495 114.969,323.523 126.010,322.252 127.145 C 321.522 127.797,319.486 130.291,319.595 130.400 C 319.667 130.472,319.833 130.423,319.963 130.293 C 320.124 130.132,321.129 130.055,323.071 130.055 L 325.941 130.055 325.941 129.538 L 325.941 129.022 339.338 129.100 C 352.374 129.176,352.777 129.189,354.323 129.617 C 356.987 130.353,358.610 131.619,359.070 133.319 C 359.226 133.896,359.610 147.299,359.653 153.688 C 359.659 154.540,359.660 154.541,360.417 154.541 C 361.434 154.541,362.067 155.007,362.067 155.756 L 362.067 156.347 364.476 156.347 L 366.884 156.347 366.884 143.201 L 366.884 130.055 374.009 130.055 L 381.134 130.055 381.134 132.163 L 381.134 134.270 382.632 134.270 L 384.129 134.270 384.356 133.417 C 385.268 129.986,387.459 129.052,394.596 129.052 L 397.993 129.052 397.993 117.612 L 397.993 106.172 385.600 106.171 C 378.783 106.171,365.562 106.111,356.220 106.038 L 339.234 105.905 336.262 109.902 M331.560 134.073 C 330.563 134.522,329.955 135.363,329.955 136.293 L 329.955 136.879 321.756 136.879 L 313.557 136.879 311.671 138.828 C 305.525 145.178,301.078 149.531,296.849 153.337 C 295.806 154.275,294.632 155.334,294.240 155.690 L 293.527 156.336 306.724 156.342 C 314.767 156.345,319.920 156.274,319.920 156.160 C 319.920 156.057,318.768 155.597,317.361 155.138 C 312.231 153.464,312.092 153.304,312.092 149.059 L 312.092 145.947 312.879 144.951 C 314.296 143.159,317.061 141.623,320.161 140.907 C 322.351 140.401,322.738 140.365,333.166 139.706 C 342.881 139.092,343.176 139.041,343.859 137.850 C 344.607 136.548,344.115 134.814,342.805 134.136 C 341.661 133.544,332.847 133.495,331.560 134.073 M390.425 139.092 C 388.407 139.366,387.185 140.039,386.278 141.376 L 385.750 142.153 385.750 149.852 L 385.750 157.551 392.875 157.551 L 400.000 157.551 400.000 148.319 L 400.000 139.087 396.412 139.087 C 394.439 139.087,392.565 139.050,392.248 139.005 C 391.931 138.960,391.110 138.999,390.425 139.092 M335.374 144.332 C 330.941 144.784,328.920 146.127,328.797 148.703 C 328.705 150.619,328.436 150.514,333.577 150.571 C 338.418 150.624,338.783 150.565,340.532 149.436 C 341.528 148.793,343.603 145.322,343.603 144.298 C 343.603 144.061,337.796 144.085,335.374 144.332 M343.101 152.350 C 341.378 153.653,338.145 155.123,335.625 155.749 C 333.946 156.166,334.742 156.347,338.255 156.347 C 340.170 156.347,342.293 156.289,342.971 156.218 L 344.205 156.089 344.205 153.910 C 344.205 151.483,344.219 151.504,343.101 152.350 " stroke="none" fill="#343434" fill-rule="evenodd"></path><path id="path3" d="M115.354 82.237 C 116.706 82.272,118.919 82.272,120.271 82.237 C 121.623 82.203,120.517 82.174,117.812 82.174 C 115.108 82.174,114.002 82.203,115.354 82.237 " stroke="none" fill="#8a8a8a" fill-rule="evenodd"></path><path id="path4" d="M111.741 82.229 C 111.989 82.277,112.396 82.277,112.644 82.229 C 112.893 82.181,112.689 82.142,112.193 82.142 C 111.696 82.142,111.493 82.181,111.741 82.229 M103.216 97.140 C 103.216 97.637,103.255 97.840,103.303 97.592 C 103.351 97.343,103.351 96.937,103.303 96.688 C 103.255 96.440,103.216 96.643,103.216 97.140 M77.959 119.920 C 77.959 122.569,77.988 123.625,78.023 122.266 C 78.057 120.908,78.057 118.740,78.022 117.450 C 77.987 116.159,77.959 117.270,77.959 119.920 M74.417 124.784 C 75.000 124.825,75.904 124.825,76.424 124.783 C 76.945 124.742,76.468 124.709,75.364 124.710 C 74.260 124.710,73.834 124.744,74.417 124.784 " stroke="none" fill="#666466" fill-rule="evenodd"></path></g></svg>